<svg viewBox="0 0 1500 1500" xmlns="http://www.w3.org/2000/svg" xml:space="preserve" fill-rule="evenodd" clip-rule="evenodd" stroke-linejoin="round" stroke-miterlimit="2"><path d="M1500 147.012C1500 65.874 1434.13 0 1352.99 0H147.012C65.874 0 0 65.874 0 147.012V1352.99C0 1434.13 65.874 1500 147.012 1500H1352.99c81.14 0 147.01-65.87 147.01-147.01V147.012zm-112.5 90.448c0-68.967-55.99-124.96-124.96-124.96H237.46c-68.967 0-124.96 55.993-124.96 124.96v1025.08c0 68.97 55.993 124.96 124.96 124.96h1025.08c68.97 0 124.96-55.99 124.96-124.96V237.46z" fill="#282c33"/><path d="M613.5 328.203c0-8.114-6.586-14.701-14.702-14.701H478.201c-8.113 0-14.7 6.587-14.7 14.701v870.601c0 8.113 6.587 14.697 14.7 14.697h120.597c8.116 0 14.702-6.584 14.702-14.697V328.203zm450 524.994c0-8.114-6.586-14.701-14.702-14.701H928.201c-8.113 0-14.7 6.587-14.7 14.7v345.6c0 8.112 6.587 14.7 14.7 14.7h120.597c8.116 0 14.702-6.588 14.702-14.7v-345.6zm-225-299.999c0-8.114-6.586-14.701-14.702-14.701H703.201c-8.113 0-14.7 6.587-14.7 14.701v645.6c0 8.112 6.587 14.699 14.7 14.699h120.597c8.116 0 14.702-6.587 14.702-14.7V553.198z" fill="#282c33"/><path d="M1455.15 1213.495c4.046 0 7.348-3.293 7.348-7.35v-60.3c0-4.056-3.302-7.35-7.347-7.35H44.845c-4.045 0-7.348 3.294-7.348 7.35v60.3c0 4.057 3.303 7.35 7.348 7.35h1410.306z" fill="#282c33"/></svg>