<svg viewBox="0 0 1500 1500" xmlns="http://www.w3.org/2000/svg" xml:space="preserve" fill-rule="evenodd" clip-rule="evenodd" stroke-linejoin="round" stroke-miterlimit="2"><path d="M1500 147.012C1500 65.874 1434.13 0 1352.99 0H147.012C65.874 0 0 65.874 0 147.012V1352.99C0 1434.13 65.874 1500 147.012 1500H1352.99c81.14 0 147.01-65.87 147.01-147.01V147.012zm-112.5 90.448c0-68.967-55.99-124.96-124.96-124.96H237.46c-68.967 0-124.96 55.993-124.96 124.96v1025.08c0 68.97 55.993 124.96 124.96 124.96h1025.08c68.97 0 124.96-55.99 124.96-124.96V237.46z" fill="#282c33"/><path d="M314.701 900.002c-8.114 0-14.701 6.586-14.701 14.702V1035.3c0 8.113 6.587 14.7 14.701 14.7h870.602c8.112 0 14.697-6.587 14.697-14.7V914.704c0-8.116-6.585-14.702-14.697-14.702H314.7zm524.999-450c-8.113 0-14.7 6.586-14.7 14.702V585.3c0 8.113 6.587 14.7 14.7 14.7h345.6c8.112 0 14.7-6.587 14.7-14.7V464.704c0-8.116-6.588-14.702-14.7-14.702H839.7zm-299.998 225c-8.114 0-14.701 6.586-14.701 14.702V810.3c0 8.113 6.587 14.7 14.701 14.7h645.6c8.112 0 14.699-6.587 14.699-14.7V689.704c0-8.116-6.587-14.702-14.7-14.702H539.702z" fill="#282c33"/><path d="M1199.995 58.35c0-4.046-3.293-7.348-7.35-7.348h-60.3c-4.056 0-7.35 3.302-7.35 7.347v1410.306c0 4.045 3.294 7.348 7.35 7.348h60.3c4.057 0 7.35-3.303 7.35-7.348V58.349z" fill="#282c33"/></svg>