<svg viewBox="0 0 2550 3300" xmlns="http://www.w3.org/2000/svg" xml:space="preserve" fill-rule="evenodd" clip-rule="evenodd" stroke-linejoin="round" stroke-miterlimit="2"><path d="M2025 218.94c0-48.69-39.52-88.21-88.21-88.21H613.207c-48.683 0-88.207 39.52-88.207 88.21v723.58c0 48.69 39.524 88.21 88.207 88.21H1936.79c48.69 0 88.21-39.52 88.21-88.21V218.94zm-187.5 150.74c0-28.39-23.06-51.45-51.45-51.45H763.954c-28.398 0-51.454 23.06-51.454 51.45v422.1c0 28.39 23.056 51.45 51.454 51.45H1786.05c28.39 0 51.45-23.06 51.45-51.45v-422.1z" fill="#282C33"/><path d="M1196.33 453.54c0-17.12-13.89-31.01-31.01-31.01H845.93c-17.116 0-31.012 13.89-31.012 31.01v254.39c0 17.11 13.896 31.01 31.011 31.01h319.39c17.12 0 31.01-13.9 31.01-31.01V453.54zM2025 1288.21c0-48.69-39.52-88.21-88.21-88.21H613.207c-48.683 0-88.207 39.52-88.207 88.21v723.58c0 48.69 39.524 88.21 88.207 88.21H1936.79c48.69 0 88.21-39.52 88.21-88.21v-723.58zm-187.5 150.74c0-28.39-23.06-51.45-51.45-51.45H763.954c-28.398 0-51.454 23.06-51.454 51.45v422.1c0 28.39 23.056 51.45 51.454 51.45H1786.05c28.39 0 51.45-23.06 51.45-51.45v-422.1z" fill="#282C33"/><path d="M1465.705 1522.806c0-17.12-13.89-31.01-31.01-31.01h-319.39c-17.115 0-31.011 13.89-31.011 31.01v254.39c0 17.11 13.896 31.01 31.011 31.01h319.39c17.12 0 31.01-13.9 31.01-31.01v-254.39zM2025 2372.33c0-48.69-39.52-88.21-88.21-88.21H613.207c-48.683 0-88.207 39.52-88.207 88.21v723.58c0 48.69 39.524 88.21 88.207 88.21H1936.79c48.69 0 88.21-39.52 88.21-88.21v-723.58zm-187.5 150.74c0-28.39-23.06-51.45-51.45-51.45H763.954c-28.398 0-51.454 23.06-51.454 51.45v422.1c0 28.39 23.056 51.45 51.454 51.45H1786.05c28.39 0 51.45-23.06 51.45-51.45v-422.1z" fill="#282C33"/><path d="M1744.118 2606.92c0-17.12-13.89-31.01-31.01-31.01h-319.39c-17.115 0-31.011 13.89-31.011 31.01v254.39c0 17.11 13.896 31.01 31.011 31.01h319.39c17.12 0 31.01-13.9 31.01-31.01v-254.39z" fill="#282C33"/></svg>