<svg viewBox="0 0 1500 1275" xmlns="http://www.w3.org/2000/svg" xml:space="preserve" fill-rule="evenodd" clip-rule="evenodd" stroke-linejoin="round" stroke-miterlimit="2"><path d="M1419.71 575.456a78.41 78.41 0 0 1 0 124.088l-618.353 477.812c-23.663 18.297-55.66 21.527-82.5 8.351-26.852-13.175-43.853-40.48-43.853-70.38v-955.65c0-29.901 17-57.201 43.853-70.38 26.84-13.18 58.837-9.945 82.5 8.338a55037991.75 55037991.75 0 0 0 618.354 477.821zM675 825V450H78.41c-20.8 0-40.74 8.261-55.44 22.965A78.387 78.387 0 0 0 0 528.41v218.18A78.407 78.407 0 0 0 78.41 825H675z" fill="current"/></svg>