<svg viewBox="0 0 1275 1500" xmlns="http://www.w3.org/2000/svg" xml:space="preserve" fill-rule="evenodd" clip-rule="evenodd" stroke-linejoin="round" stroke-miterlimit="2"><path d="M699.544 1419.71a78.41 78.41 0 0 1-124.088 0L97.644 801.358c-18.297-23.663-21.527-55.66-8.352-82.5 13.175-26.852 40.482-43.853 70.38-43.853h955.651c29.901 0 57.201 17 70.38 43.853 13.18 26.84 9.945 58.837-8.338 82.5a55037991.75 55037991.75 0 0 0-477.821 618.354zM450 675h375V78.41c0-20.8-8.261-40.74-22.965-55.44A78.387 78.387 0 0 0 746.59 0H528.41A78.407 78.407 0 0 0 450 78.41V675z" fill="current"/></svg>