<svg viewBox="0 0 1425 1291" xmlns="http://www.w3.org/2000/svg" xml:space="preserve" fill-rule="evenodd" clip-rule="evenodd" stroke-linejoin="round" stroke-miterlimit="2"><path d="M1012.5 980.059c0-12.167-9.88-22.052-22.052-22.052H434.552c-12.17 0-22.052 9.885-22.052 22.052v180.896c0 12.167 9.882 22.052 22.052 22.052h555.896c12.172 0 22.053-9.885 22.053-22.052V980.06z" fill="current"/><path d="M1206 1211.283c0-38.789-31.491-70.282-70.281-70.282H301.284c-38.791 0-70.284 31.493-70.284 70.282v9.436c0 38.788 31.493 70.282 70.284 70.282h834.435c38.79 0 70.28-31.494 70.28-70.282v-9.436zM1425 95.558C1425 42.818 1382.18 0 1329.44 0H95.558C42.818 0 0 42.818 0 95.558V879.44C0 932.18 42.818 975 95.558 975H1329.44c52.74 0 95.56-42.82 95.56-95.56V95.558zM1271.5 886c16.56 0 30 13.44 30 30 0 16.56-13.44 30-30 30-16.56 0-30-13.44-30-30 0-16.56 13.44-30 30-30zm-86 0c16.56 0 30 13.44 30 30 0 16.56-13.44 30-30 30-16.56 0-30-13.44-30-30 0-16.56 13.44-30 30-30zm-86 0c16.56 0 30 13.44 30 30 0 16.56-13.44 30-30 30-16.56 0-30-13.44-30-30 0-16.56 13.44-30 30-30zM1324 179.506c0-40.569-32.94-73.506-73.51-73.506l-1067.484.494c-40.569 0-73.506 32.937-73.506 73.506v591.99c0 40.57 32.937 73.5 73.506 73.5L1250.49 845c40.57 0 73.51-32.94 73.51-73.51V179.506z" fill="current"/></svg>