<svg viewBox="0 0 1500 1498" xmlns="http://www.w3.org/2000/svg" xml:space="preserve" fill-rule="evenodd" clip-rule="evenodd" stroke-linejoin="round" stroke-miterlimit="2"><path d="M822.998 37.5c0-20.696-16.803-37.5-37.5-37.5h-75c-20.697 0-37.5 16.804-37.5 37.5v225c0 20.698 16.803 37.5 37.5 37.5h75c20.697 0 37.5-16.802 37.5-37.5v-225zm0 562.496c0-20.697-16.803-37.5-37.5-37.5h-75c-20.697 0-37.5 16.803-37.5 37.5v300c0 20.696 16.803 37.5 37.5 37.5h75c20.697 0 37.5-16.804 37.5-37.5v-300zm677 38.001c0-20.697-16.803-37.5-37.5-37.5h-75c-20.697 0-37.5 16.803-37.5 37.5v225c0 20.697 16.803 37.5 37.5 37.5h75c20.697 0 37.5-16.803 37.5-37.5v-225z" fill="#282c33"/><path d="M935.495 824.998c20.697 0 37.5-16.803 37.5-37.5v-75c0-20.697-16.803-37.5-37.5-37.5h-375c-20.697 0-37.5 16.803-37.5 37.5v75c0 20.697 16.803 37.5 37.5 37.5h375zm-37.491-675c20.697 0 37.5-16.803 37.5-37.5v-75c0-20.697-16.803-37.5-37.5-37.5h-300c-20.696 0-37.5 16.803-37.5 37.5v75c0 20.697 16.804 37.5 37.5 37.5h300zm-225 1310.505c0 20.697 16.803 37.5 37.5 37.5h75c20.697 0 37.5-16.803 37.5-37.5v-225c0-20.697-16.803-37.5-37.5-37.5h-75c-20.697 0-37.5 16.803-37.5 37.5v225z" fill="#282c33"/><path d="M598 1348.004c-20.697 0-37.5 16.803-37.5 37.5v75c0 20.697 16.803 37.5 37.5 37.5h300c20.696 0 37.5-16.803 37.5-37.5v-75c0-20.697-16.804-37.5-37.5-37.5H598zm862.503-523.006c20.697 0 37.5-16.803 37.5-37.5v-75c0-20.697-16.803-37.5-37.5-37.5h-225c-20.697 0-37.5 16.803-37.5 37.5v75c0 20.697 16.803 37.5 37.5 37.5h225zm0 673c20.697 0 37.5-16.803 37.5-37.5v-75c0-20.697-16.803-37.5-37.5-37.5h-225c-20.697 0-37.5 16.803-37.5 37.5v75c0 20.697 16.803 37.5 37.5 37.5h225z" fill="#282c33"/><path d="M1347.004 1458.503c0 20.697 16.803 37.5 37.5 37.5h75c20.697 0 37.5-16.803 37.5-37.5v-225c0-20.697-16.803-37.5-37.5-37.5h-75c-20.697 0-37.5 16.803-37.5 37.5v225zm113.499-1308.505c20.697 0 37.5-16.803 37.5-37.5v-75c0-20.697-16.803-37.5-37.5-37.5h-225c-20.697 0-37.5 16.803-37.5 37.5v75c0 20.697 16.803 37.5 37.5 37.5h225z" fill="#282c33"/><path d="M1499.998 37.5c0-20.696-16.803-37.5-37.5-37.5h-75c-20.697 0-37.5 16.804-37.5 37.5v225c0 20.698 16.803 37.5 37.5 37.5h75c20.697 0 37.5-16.802 37.5-37.5v-225zM.004 860.003c0 20.697 16.803 37.5 37.5 37.5h75c20.697 0 37.5-16.803 37.5-37.5v-225c0-20.697-16.803-37.5-37.5-37.5h-75c-20.697 0-37.5 16.803-37.5 37.5v225z" fill="#282c33"/><path d="M39.5 673.004c-20.696 0-37.5 16.803-37.5 37.5v75c0 20.697 16.804 37.5 37.5 37.5h225c20.698 0 37.5-16.803 37.5-37.5v-75c0-20.697-16.802-37.5-37.5-37.5h-225zm0-673C18.805.004 2 16.807 2 37.504v75c0 20.697 16.804 37.5 37.5 37.5h225c20.698 0 37.5-16.803 37.5-37.5v-75c0-20.697-16.802-37.5-37.5-37.5h-225z" fill="#282c33"/><path d="M152.996 39.5c0-20.696-16.803-37.5-37.5-37.5h-75C19.8 2 2.996 18.805 2.996 39.5v225c0 20.698 16.803 37.5 37.5 37.5h75c20.697 0 37.5-16.802 37.5-37.5v-225zM39.5 1348.004c-20.696 0-37.5 16.803-37.5 37.5v75c0 20.697 16.804 37.5 37.5 37.5h225c20.698 0 37.5-16.803 37.5-37.5v-75c0-20.697-16.802-37.5-37.5-37.5h-225z" fill="#282c33"/><path d="M.004 1460.503c0 20.697 16.803 37.5 37.5 37.5h75c20.697 0 37.5-16.803 37.5-37.5v-225c0-20.697-16.803-37.5-37.5-37.5h-75c-20.697 0-37.5 16.803-37.5 37.5v225z" fill="#282c33"/></svg>