<svg viewBox="0 0 1200 1200" xmlns="http://www.w3.org/2000/svg" xml:space="preserve" fill-rule="evenodd" clip-rule="evenodd" stroke-linejoin="round" stroke-miterlimit="2"><path d="M300 29.401C300 13.175 286.824 0 270.596 0H29.401C13.174 0 0 13.175 0 29.4v241.197C0 286.825 13.174 300 29.401 300h241.196C286.825 300 300 286.825 300 270.598V29.401zm450 0C750 13.175 736.824 0 720.596 0H479.401C463.174 0 450 13.175 450 29.4v241.197C450 286.825 463.174 300 479.401 300h241.196C736.825 300 750 286.825 750 270.598V29.401zm450.004 0c0-16.226-13.174-29.401-29.402-29.401H929.406c-16.226 0-29.402 13.175-29.402 29.4v241.197c0 16.227 13.175 29.402 29.402 29.402h241.196c16.228 0 29.402-13.175 29.402-29.402V29.401zm0 450c0-16.226-13.174-29.401-29.402-29.401H929.406c-16.227 0-29.402 13.175-29.402 29.401v241.197c0 16.227 13.175 29.402 29.402 29.402h241.196c16.228 0 29.402-13.175 29.402-29.402V479.401zm-450.004 0C750 463.175 736.824 450 720.596 450H479.401C463.174 450 450 463.175 450 479.4v241.197C450 736.825 463.174 750 479.401 750h241.196C736.825 750 750 736.825 750 720.598V479.401zm-450 0C300 463.175 286.824 450 270.596 450H29.401C13.174 450 0 463.175 0 479.4v241.197C0 736.825 13.174 750 29.401 750h241.196C286.825 750 300 736.825 300 720.598V479.401zm0 450C300 913.175 286.824 900 270.596 900H29.401C13.174 900 0 913.175 0 929.401V1170.6c0 16.225 13.174 29.4 29.401 29.4h241.196c16.228 0 29.402-13.175 29.402-29.401V929.4zm450 0C750 913.175 736.824 900 720.596 900H479.401C463.174 900 450 913.175 450 929.401V1170.6c0 16.226 13.175 29.401 29.402 29.401h241.196c16.228 0 29.402-13.175 29.402-29.401V929.4zm450.004 0c0-16.226-13.174-29.401-29.402-29.401H929.406c-16.227 0-29.402 13.175-29.402 29.401V1170.6c0 16.226 13.175 29.401 29.402 29.401h241.196c16.228 0 29.402-13.175 29.402-29.401V929.4z" fill="#282c33"/></svg>