<svg viewBox="0 0 1295 1275" xmlns="http://www.w3.org/2000/svg" xml:space="preserve" fill-rule="evenodd" clip-rule="evenodd" stroke-linecap="round" stroke-linejoin="round" stroke-miterlimit="1.5"><path d="M105 22.499a22.5 22.5 0 0 0-22.5-22.5h-60A22.5 22.5 0 0 0 0 22.499v1230a22.48 22.48 0 0 0 6.59 15.9 22.473 22.473 0 0 0 15.91 6.596h60c5.967 0 11.69-2.368 15.91-6.596a22.483 22.483 0 0 0 6.59-15.9v-1230z" fill="#282c33"/><path fill="#282c33" d="M74.999 570h750v105h-750z"/><path d="M855 22.499a22.5 22.5 0 0 0-22.502-22.5h-59.996A22.5 22.5 0 0 0 750 22.499v1230a22.48 22.48 0 0 0 6.59 15.9 22.472 22.472 0 0 0 15.911 6.596h59.997a22.472 22.472 0 0 0 15.911-6.596 22.477 22.477 0 0 0 6.591-15.9v-1230z" fill="#282c33"/><path d="M1305.76 3069.79h-83.26c-12.43 0-22.5 10.79-22.5 24.09v32.03c0 13.3 10.07 24.09 22.5 24.09h286.73c12.43 0 22.5-10.79 22.5-24.09V2574.1c0-13.31-10.07-24.1-22.5-24.1H1222.5c-5.97 0-11.69 2.54-15.91 7.06-4.22 4.52-6.59 10.64-6.59 17.04v27.63c0 13.3 10.07 24.09 22.5 24.09h83.26s133.91-17.85 132.66 74.18c-.98 73.02-42.69 89.34-68.47 92.43-11.36 1.39-19.94 11.68-19.94 23.93-.01 16.16-.01 37.49-.01 53.88 0 6.49 2.44 12.7 6.77 17.23 4.34 4.54 10.19 7.01 16.25 6.86 70.97-2.66 92.67 1.05 65.4 105.67-20.22 77.58-132.66 69.79-132.66 69.79z" fill="#282c33" stroke="#282c33" stroke-width="1.03" transform="matrix(1 0 0 .9338 -237.251 -1668.677)"/></svg>