<svg viewBox="0 0 1238 1275" xmlns="http://www.w3.org/2000/svg" xml:space="preserve" fill-rule="evenodd" clip-rule="evenodd" stroke-linecap="round" stroke-linejoin="round" stroke-miterlimit="1.5"><path d="M105 22.499a22.5 22.5 0 0 0-22.5-22.5h-60A22.5 22.5 0 0 0 0 22.499v1230a22.48 22.48 0 0 0 6.59 15.9 22.473 22.473 0 0 0 15.91 6.596h60c5.967 0 11.69-2.368 15.91-6.596a22.483 22.483 0 0 0 6.59-15.9v-1230z" fill="#282c33"/><path fill="#282c33" d="M75 570h750v105H75z"/><path d="M855 22.499a22.5 22.5 0 0 0-22.502-22.5h-59.996A22.5 22.5 0 0 0 750 22.499v1230a22.48 22.48 0 0 0 6.59 15.9 22.472 22.472 0 0 0 15.911 6.596h59.997a22.472 22.472 0 0 0 15.911-6.596 22.477 22.477 0 0 0 6.591-15.9v-1230z" fill="#282c33"/><path d="M3043.87 1471.64c-7.61 4.92-9.63 12.08-5.16 18.23 4.47 6.15 14.59 10.13 25.78 10.13h282.39c7.45 0 14.61-1.78 19.88-4.94 5.28-3.17 8.24-7.46 8.24-11.94v-45.53c0-4.48-2.96-8.77-8.24-11.94-5.27-3.16-12.43-4.94-19.88-4.94h-76.72s104.11-68.62 104.84-219.12c0-1.33-.08-2.66-.25-3.98-2.28-16.65-22.67-114.4-188.56-114.4-133.74 0-171.49 63.54-182.08 96.89-1.5 4.91.71 9.96 6.04 13.8 5.33 3.83 13.22 6.05 21.54 6.05 16.26.05 35.71.05 50.49.05 12.28 0 23.14-4.78 26.82-11.81 7-13.3 26-33.08 77.19-33.08 77.12 0 83.97 44.89 83.97 44.89s-12.83 133.69-83.97 179.66c-66.72 43.13-112.73 72.86-142.32 91.98z" fill="#282c33" stroke="#282c33" stroke-width=".91" transform="matrix(.8 0 0 1.33333 -1462.5 -731.784)"/></svg>