<svg viewBox="0 0 1275 1275" xmlns="http://www.w3.org/2000/svg" xml:space="preserve" fill-rule="evenodd" clip-rule="evenodd" stroke-linejoin="round" stroke-miterlimit="2"><path d="M105 22.499a22.5 22.5 0 0 0-22.5-22.5h-60A22.5 22.5 0 0 0 0 22.499v1230a22.48 22.48 0 0 0 6.59 15.9 22.473 22.473 0 0 0 15.91 6.596h60c5.967 0 11.69-2.368 15.91-6.596a22.483 22.483 0 0 0 6.59-15.9v-1230z" fill="#282c33"/><path fill="#282c33" d="M75 570h750v105H75z"/><path d="M855 22.499a22.5 22.5 0 0 0-22.502-22.5h-59.996A22.5 22.5 0 0 0 750 22.499v1230a22.48 22.48 0 0 0 6.59 15.9 22.472 22.472 0 0 0 15.911 6.596h59.997a22.472 22.472 0 0 0 15.911-6.596 22.477 22.477 0 0 0 6.591-15.9v-1230zm345 674.997c0-5.968-2.366-11.68-6.594-15.904a22.466 22.466 0 0 0-15.904-6.592H1095v600h105V697.496z" fill="#282c33"/><path d="M1275 1192.5a22.497 22.497 0 0 0-22.5-22.5h-217.368a22.497 22.497 0 0 0-22.5 22.5v60a22.497 22.497 0 0 0 22.5 22.5H1252.5a22.497 22.497 0 0 0 22.5-22.5v-60zM1160.062 675h-119.308a22.52 22.52 0 0 0-15.91 6.587 22.51 22.51 0 0 0-6.59 15.911v60.004a22.51 22.51 0 0 0 6.59 15.911 22.52 22.52 0 0 0 15.91 6.587h119.308V675z" fill="#282c33"/></svg>