<svg viewBox="0 0 1200 1050" xmlns="http://www.w3.org/2000/svg" xml:space="preserve" fill-rule="evenodd" clip-rule="evenodd" stroke-linejoin="round" stroke-miterlimit="2"><path d="M1200.005 112.5c0-62.09-55.908-112.5-124.77-112.5H124.772C55.91 0 .002 50.41.002 112.5v525c0 62.09 55.908 112.5 124.77 112.5h950.464c68.861 0 124.769-50.41 124.769-112.5v-525zM1098.67 165c0-49.67-16.88-75.5-71.967-75.5h-876.7c-55.09 0-44 25.83-44 75.5v420c0 49.67-1.94 52.5 53.15 52.5h881.702c55.087 0 57.815-2.83 57.815-52.5V165zM1200 855c0-7.957-3.16-15.585-8.79-21.21A29.952 29.952 0 0 0 1170 825H30a29.976 29.976 0 0 0-21.213 8.79A29.99 29.99 0 0 0 0 855v138.75c0 14.918 7.902 29.227 21.967 39.773C36.032 1044.074 55.109 1050 75 1050h1050c19.89 0 38.97-5.925 53.03-16.477 14.07-10.545 21.97-24.855 21.97-39.773V855zm-375 3.75H375v22.5c0 31.065 33.58 56.25 75 56.25h300c41.42 0 75-25.185 75-56.25v-22.5z" fill="current"/></svg>