<svg viewBox="0 0 1500 900" xmlns="http://www.w3.org/2000/svg" xml:space="preserve" fill-rule="evenodd" clip-rule="evenodd" stroke-linejoin="round" stroke-miterlimit="2"><path d="M1365 900c74.509 0 135-60.49 135-135V135c0-74.509-60.491-135-135-135H135C60.49 0 0 60.491 0 135v630c0 74.51 60.49 135 135 135h1230zm-78.75-112.5c55.88 0 101.25-45.37 101.25-101.25v-472.5c0-55.881-45.37-101.25-101.25-101.25H213.75c-55.88 0-101.25 45.369-101.25 101.25v472.5c0 55.88 45.37 101.25 101.25 101.25h1072.5z" fill="current"/><path d="M1451.25 625.5c26.905 0 48.75-21.846 48.75-48.751V323.25c0-26.905-21.845-48.75-48.75-48.75h-97.5c-26.906 0-48.75 21.845-48.75 48.75v253.5c0 26.905 21.844 48.75 48.75 48.75h97.5z" fill="current"/></svg>