<svg viewBox="0 0 900 1500" xmlns="http://www.w3.org/2000/svg" xml:space="preserve" fill-rule="evenodd" clip-rule="evenodd" stroke-linejoin="round" stroke-miterlimit="2"><path d="M900 135C900 60.491 839.51 0 765 0H135C60.491 0 0 60.491 0 135v1230c0 74.51 60.491 135 135 135h630c74.51 0 135-60.49 135-135V135zm-112.5 78.75c0-55.88-45.37-101.25-101.25-101.25h-472.5c-55.881 0-101.25 45.37-101.25 101.25v1072.5c0 55.88 45.369 101.25 101.25 101.25h472.5c55.88 0 101.25-45.37 101.25-101.25V213.75z" fill="current"/><path d="M625.5 48.75C625.5 21.846 603.654 0 576.749 0H323.25c-26.905 0-48.75 21.845-48.75 48.75v97.5c0 26.906 21.845 48.75 48.75 48.75h253.5c26.905 0 48.75-21.844 48.75-48.75v-97.5z" fill="current"/></svg>