<svg viewBox="0 0 1350 1350" xmlns="http://www.w3.org/2000/svg" xml:space="preserve" fill-rule="evenodd" clip-rule="evenodd" stroke-linejoin="round" stroke-miterlimit="2"><path d="M1350 202.5C1350 90.737 1259.26 0 1147.5 0h-945C90.737 0 0 90.737 0 202.5v945C0 1259.26 90.737 1350 202.5 1350h945c111.76 0 202.5-90.74 202.5-202.5v-945zm-112.5 78.75c0-93.136-75.61-168.75-168.75-168.75h-787.5c-93.136 0-168.75 75.614-168.75 168.75v787.5c0 93.14 75.614 168.75 168.75 168.75h787.5c93.14 0 168.75-75.61 168.75-168.75v-787.5z" fill="#282c33"/></svg>