<svg viewBox="0 0 1200 1500" xmlns="http://www.w3.org/2000/svg" xml:space="preserve" fill-rule="evenodd" clip-rule="evenodd" stroke-linejoin="round" stroke-miterlimit="2"><path d="M1200 120c0-66.23-53.77-120-120-120H120C53.77 0 0 53.77 0 120v1260c0 66.23 53.77 120 120 120h960c66.23 0 120-53.77 120-120V120zM600 1237.5c62.09 0 112.5 50.41 112.5 112.5s-50.41 112.5-112.5 112.5-112.5-50.41-112.5-112.5 50.41-112.5 112.5-112.5zM1087.5 210c0-53.81-43.69-97.5-97.5-97.5H210c-53.812 0-97.5 43.69-97.5 97.5v892.5c0 53.81 43.688 97.5 97.5 97.5h780c53.81 0 97.5-43.69 97.5-97.5V210z" fill="current"/></svg>