<svg viewBox="0 0 1275 1095" xmlns="http://www.w3.org/2000/svg" xml:space="preserve" fill-rule="evenodd" clip-rule="evenodd" stroke-linejoin="round" stroke-miterlimit="2"><path d="M277.5 15h-105v502.495A22.515 22.515 0 0 0 195 540h60a22.515 22.515 0 0 0 22.5-22.505V15z" fill="#282c33"/><path d="M450 22.498c0-5.964-2.374-11.69-6.592-15.904A22.464 22.464 0 0 0 427.5 0h-405A22.47 22.47 0 0 0 6.59 6.594 22.485 22.485 0 0 0 0 22.498v60.004c0 5.964 2.37 11.69 6.59 15.904A22.47 22.47 0 0 0 22.5 105h405a22.464 22.464 0 0 0 15.908-6.594A22.494 22.494 0 0 0 450 82.502V22.498zM1275 247.497c0-12.424-10.07-22.496-22.5-22.496h-705c-12.43 0-22.5 10.072-22.5 22.496v30C525 289.929 535.07 300 547.5 300h705c12.43 0 22.5-10.072 22.5-22.502v-30.001zM1275 442.503c0-12.432-10.07-22.5-22.5-22.5h-705c-12.43 0-22.5 10.068-22.5 22.5V472.5c0 12.425 10.07 22.5 22.5 22.5h705c12.43 0 22.5-10.075 22.5-22.5v-29.997zM1275 45.003c0-12.432-10.07-22.5-22.5-22.5h-705c-12.43 0-22.5 10.068-22.5 22.5V75c0 12.425 10.07 22.5 22.5 22.5h705c12.43 0 22.5-10.075 22.5-22.5V45.003zM1275 645.002c0-12.43-10.07-22.502-22.5-22.502H22.5C10.074 622.5 0 632.573 0 645.002v29.995c0 12.43 10.074 22.502 22.5 22.502h1230c12.43 0 22.5-10.073 22.5-22.502v-29.995zM1275 847.5c0-12.43-10.07-22.5-22.5-22.5H22.5C10.074 825 0 835.07 0 847.5v30C0 889.93 10.074 900 22.5 900h1230c12.43 0 22.5-10.07 22.5-22.5v-30zM1275 1042.5c0-12.423-10.07-22.5-22.5-22.5H22.5c-12.426 0-22.5 10.077-22.5 22.5v30c0 12.428 10.074 22.504 22.5 22.504h1230c12.43 0 22.5-10.076 22.5-22.505v-30z" fill="#282c33"/></svg>